REM DIRINDEX 1\6,1\2\7,1\2\8,1\2\9,1\3\10,1\3\11,1\4\12,1\4\13,1\4\14,1\5\15,1\5\16,1\5\17
REM DIRNAME folder01,folder02,folder03,folder04,folder05,folder06,folder07,folder08,folder09,folder10,folder11,folder12,folder13,folder14,folder15,folder16,folder17
TITLE ""
FILE "3Q_j_1261-1276.mp3" MP3
  TRACK 01 AUDIO
    TITLE "12:cjc041_1083"
    INDEX 01 00:00:00
  TRACK 02 AUDIO
    TITLE "0:"
    INDEX 01 00:01:73
  TRACK 03 AUDIO
    TITLE "13:cjc041_1084"
    INDEX 01 00:02:57
  TRACK 04 AUDIO
    TITLE "0:"
    INDEX 01 00:04:27
  TRACK 05 AUDIO
    TITLE "14:cjc041_1085"
    INDEX 01 00:05:05
  TRACK 06 AUDIO
    TITLE "0:"
    INDEX 01 00:08:73
  TRACK 07 AUDIO
    TITLE "12:cjc041_1086"
    INDEX 01 00:09:53
  TRACK 08 AUDIO
    TITLE "0:"
    INDEX 01 00:11:66
  TRACK 09 AUDIO
    TITLE "13:cjc041_1087"
    INDEX 01 00:12:42
  TRACK 10 AUDIO
    TITLE "0:"
    INDEX 01 00:15:03
  TRACK 11 AUDIO
    TITLE "14:cjc041_1088"
    INDEX 01 00:15:56
  TRACK 12 AUDIO
    TITLE "0:"
    INDEX 01 00:18:64
  TRACK 13 AUDIO
    TITLE "12:cjc041_1089"
    INDEX 01 00:19:44
  TRACK 14 AUDIO
    TITLE "0:"
    INDEX 01 00:21:19
  TRACK 15 AUDIO
    TITLE "13:cjc041_1090"
    INDEX 01 00:21:70
  TRACK 16 AUDIO
    TITLE "0:"
    INDEX 01 00:23:28
  TRACK 17 AUDIO
    TITLE "14:cjc041_1091"
    INDEX 01 00:24:04
  TRACK 18 AUDIO
    TITLE "0:"
    INDEX 01 00:26:34
  TRACK 19 AUDIO
    TITLE "12:cjc041_1092"
    INDEX 01 00:27:12
  TRACK 20 AUDIO
    TITLE "0:"
    INDEX 01 00:28:57
  TRACK 21 AUDIO
    TITLE "13:cjc041_1093"
    INDEX 01 00:29:36
  TRACK 22 AUDIO
    TITLE "0:"
    INDEX 01 00:31:16
  TRACK 23 AUDIO
    TITLE "14:cjc041_1094"
    INDEX 01 00:31:71
  TRACK 24 AUDIO
    TITLE "0:"
    INDEX 01 00:35:00
  TRACK 25 AUDIO
    TITLE "12:cjc041_1095"
    INDEX 01 00:35:55
  TRACK 26 AUDIO
    TITLE "0:"
    INDEX 01 00:37:24
  TRACK 27 AUDIO
    TITLE "13:cjc041_1096"
    INDEX 01 00:37:73
  TRACK 28 AUDIO
    TITLE "0:"
    INDEX 01 00:40:24
  TRACK 29 AUDIO
    TITLE "14:cjc041_1097"
    INDEX 01 00:41:04
  TRACK 30 AUDIO
    TITLE "0:"
    INDEX 01 00:44:42
  TRACK 31 AUDIO
    TITLE "12:cjc041_1098"
    INDEX 01 00:45:24
  TRACK 32 AUDIO
    TITLE "0:"
    INDEX 01 00:46:66
  TRACK 33 AUDIO
    TITLE "13:cjc041_1099"
    INDEX 01 00:47:40
  TRACK 34 AUDIO
    TITLE "0:"
    INDEX 01 00:49:18
  TRACK 35 AUDIO
    TITLE "14:cjc041_1100"
    INDEX 01 00:49:72
  TRACK 36 AUDIO
    TITLE "0:"
    INDEX 01 00:53:49
  TRACK 37 AUDIO
    TITLE "12:cjc041_1101"
    INDEX 01 00:54:32
  TRACK 38 AUDIO
    TITLE "0:"
    INDEX 01 00:55:67
  TRACK 39 AUDIO
    TITLE "13:cjc041_1102"
    INDEX 01 00:56:53
  TRACK 40 AUDIO
    TITLE "0:"
    INDEX 01 00:59:06
  TRACK 41 AUDIO
    TITLE "14:cjc041_1103"
    INDEX 01 00:59:67
  TRACK 42 AUDIO
    TITLE "0:"
    INDEX 01 01:03:39
  TRACK 43 AUDIO
    TITLE "12:cjc041_1104"
    INDEX 01 01:04:15
  TRACK 44 AUDIO
    TITLE "0:"
    INDEX 01 01:06:10
  TRACK 45 AUDIO
    TITLE "13:cjc041_1105"
    INDEX 01 01:06:65
  TRACK 46 AUDIO
    TITLE "0:"
    INDEX 01 01:08:58
  TRACK 47 AUDIO
    TITLE "14:cjc041_1106"
    INDEX 01 01:09:40
  TRACK 48 AUDIO
    TITLE "0:"
    INDEX 01 01:14:27
  TRACK 49 AUDIO
    TITLE "12:cjc041_1107"
    INDEX 01 01:15:13
  TRACK 50 AUDIO
    TITLE "0:"
    INDEX 01 01:17:12
  TRACK 51 AUDIO
    TITLE "13:cjc041_1108"
    INDEX 01 01:17:69
  TRACK 52 AUDIO
    TITLE "0:"
    INDEX 01 01:21:20
  TRACK 53 AUDIO
    TITLE "14:cjc041_1109"
    INDEX 01 01:21:72
  TRACK 54 AUDIO
    TITLE "0:"
    INDEX 01 01:26:03
  TRACK 55 AUDIO
    TITLE "12:cjc041_1110"
    INDEX 01 01:26:58
  TRACK 56 AUDIO
    TITLE "0:"
    INDEX 01 01:28:25
  TRACK 57 AUDIO
    TITLE "13:cjc041_1111"
    INDEX 01 01:29:01
  TRACK 58 AUDIO
    TITLE "0:"
    INDEX 01 01:31:28
  TRACK 59 AUDIO
    TITLE "14:cjc041_1112"
    INDEX 01 01:32:06
  TRACK 60 AUDIO
    TITLE "0:"
    INDEX 01 01:34:48
  TRACK 61 AUDIO
    TITLE "12:cjc041_1113"
    INDEX 01 01:35:26
  TRACK 62 AUDIO
    TITLE "0:"
    INDEX 01 01:36:66
  TRACK 63 AUDIO
    TITLE "13:cjc041_1114"
    INDEX 01 01:37:42
  TRACK 64 AUDIO
    TITLE "0:"
    INDEX 01 01:39:57
  TRACK 65 AUDIO
    TITLE "14:cjc041_1115"
    INDEX 01 01:40:35
  TRACK 66 AUDIO
    TITLE "0:"
    INDEX 01 01:43:43
  TRACK 67 AUDIO
    TITLE "12:cjc041_1116"
    INDEX 01 01:44:17
  TRACK 68 AUDIO
    TITLE "0:"
    INDEX 01 01:45:69
  TRACK 69 AUDIO
    TITLE "13:cjc041_1117"
    INDEX 01 01:46:53
  TRACK 70 AUDIO
    TITLE "0:"
    INDEX 01 01:50:37
  TRACK 71 AUDIO
    TITLE "14:cjc041_1118"
    INDEX 01 01:51:13
  TRACK 72 AUDIO
    TITLE "0:"
    INDEX 01 01:54:48
  TRACK 73 AUDIO
    TITLE "12:cjc041_1119"
    INDEX 01 01:55:24
  TRACK 74 AUDIO
    TITLE "0:"
    INDEX 01 01:56:63
  TRACK 75 AUDIO
    TITLE "13:cjc041_1120"
    INDEX 01 01:57:43
  TRACK 76 AUDIO
    TITLE "0:"
    INDEX 01 01:59:36
  TRACK 77 AUDIO
    TITLE "14:cjc041_1121"
    INDEX 01 02:00:16
  TRACK 78 AUDIO
    TITLE "0:"
    INDEX 01 02:03:43
  TRACK 79 AUDIO
    TITLE "12:cjc041_1122"
    INDEX 01 02:04:21
  TRACK 80 AUDIO
    TITLE "0:"
    INDEX 01 02:05:60
  TRACK 81 AUDIO
    TITLE "13:cjc041_1123"
    INDEX 01 02:06:40
  TRACK 82 AUDIO
    TITLE "0:"
    INDEX 01 02:09:15
  TRACK 83 AUDIO
    TITLE "14:cjc041_1124"
    INDEX 01 02:09:68
  TRACK 84 AUDIO
    TITLE "0:"
    INDEX 01 02:14:12
  TRACK 85 AUDIO
    TITLE "12:cjc041_1125"
    INDEX 01 02:14:67
  TRACK 86 AUDIO
    TITLE "0:"
    INDEX 01 02:16:36
  TRACK 87 AUDIO
    TITLE "13:cjc041_1126"
    INDEX 01 02:17:14
  TRACK 88 AUDIO
    TITLE "0:"
    INDEX 01 02:18:27
  TRACK 89 AUDIO
    TITLE "14:cjc041_1127"
    INDEX 01 02:18:74
  TRACK 90 AUDIO
    TITLE "0:"
    INDEX 01 02:22:58
  TRACK 91 AUDIO
    TITLE "12:cjc041_1128"
    INDEX 01 02:23:38
  TRACK 92 AUDIO
    TITLE "0:"
    INDEX 01 02:25:04
  TRACK 93 AUDIO
    TITLE "13:cjc041_1129"
    INDEX 01 02:25:55
  TRACK 94 AUDIO
    TITLE "0:"
    INDEX 01 02:28:06
  TRACK 95 AUDIO
    TITLE "14:cjc041_1130"
    INDEX 01 02:28:57
  TRACK 96 AUDIO
    TITLE "0:"
    INDEX 01 02:33:31
